<svg width="215" height="48" viewBox="0 0 215 48" fill="none" xmlns="http://www.w3.org/2000/svg">
<path d="M14.2238 16.9014C13.4749 17.4707 12.833 17.9688 12.3337 18.3958C11.4065 18.2179 10.9429 17.6486 10.9429 16.6523C10.9429 16.1897 11.0499 15.6916 11.2282 15.0511C12.0128 14.3395 13.2253 13.272 14.8657 11.8132C15.151 11.742 15.472 11.7064 15.7216 11.7064C16.4348 11.7064 17.1124 11.9199 17.7187 12.3469C18.5389 12.9518 19.0025 13.8769 19.0738 15.0867L18.5389 17.7909C18.5032 18.467 18.8598 19.7835 18.8242 21.1V21.1356C18.8242 22.9859 19.4661 24.1957 20.7856 24.8006C21.9268 25.8324 22.4973 27.2913 22.4973 29.1416C22.4973 29.2839 21.9624 30.3869 21.9624 30.5648C21.8911 31.8102 22.1051 32.1304 21.5345 33.4825C20.8926 34.0163 20.2863 34.5856 19.6444 35.1549L17.79 36.8273C16.7558 37.0052 15.8286 37.1119 15.044 37.1119C13.4392 37.1119 12.3337 36.2224 11.4778 35.5107C10.1227 34.4433 9.15982 33.447 8.83887 31.3476C8.91019 30.8851 8.98151 30.4225 9.05284 29.9599C9.15982 29.4974 9.76607 29.4262 10.1227 29.0704C11.0856 28.0385 11.4065 26.1527 13.2609 25.1564C13.6532 25.0852 14.0455 25.0496 14.4021 25.0496C15.258 25.0496 15.9356 25.2275 16.5062 25.6189C17.2907 26.1527 17.897 26.8999 18.3249 27.825C17.8613 28.1808 17.2194 28.7502 16.3635 29.5685C15.4363 28.0385 15.044 27.6115 13.8315 27.6115C13.5819 27.6115 12.5834 27.2913 12.3337 27.3269C11.9058 27.8606 11.6918 28.6078 11.6918 29.4618C11.6918 29.4974 11.6918 29.5685 11.6918 29.6041C12.405 33.2691 14.5091 35.1193 17.9683 35.2261C18.2893 35.1549 18.7529 34.8347 19.3948 34.6923C19.9654 33.0912 20.7143 31.3476 20.2507 30.2802C19.6444 28.9636 19.7514 27.5048 18.7529 26.295C16.8984 24.765 15.9712 23.1282 15.8999 21.4203C15.8999 21.3491 15.8999 21.2424 15.8999 21.1C15.8999 20.6375 15.8999 19.8903 15.9356 18.8228C15.9356 18.2535 15.9356 17.3995 15.9712 16.2609C15.9712 16.2253 15.9712 16.2253 15.9712 16.1897C15.9712 15.5493 15.7929 14.8376 15.4006 14.0904C15.1153 13.5211 14.7587 13.2364 14.4021 13.2364C14.2595 13.2364 14.1168 13.272 13.9742 13.3788C13.6532 13.8413 13.5106 14.3395 13.5106 14.8376C13.4392 15.5493 13.6889 16.2253 14.2238 16.9014Z" fill="white"/>
<path d="M29.8792 18.3247L27.8822 19.321C27.3829 19.6768 27.4186 20.0326 26.955 20.3884C25.8851 20.1038 25.2432 19.5344 24.9936 18.7516C24.8509 18.3602 25.1719 18.0044 25.1719 17.5774C25.1719 17.1149 24.8509 16.5456 24.9936 15.9763L29.4513 11.7776C29.8436 11.742 30.2715 11.742 30.6995 11.742C33.0888 11.742 34.7649 11.9555 35.6921 12.3469C37.2612 12.9874 37.7248 14.1616 37.7248 16.1897C37.7248 16.6167 38.0101 17.2572 37.9388 17.7553C37.3326 18.2891 36.4054 19.1075 35.1929 20.1749C37.1899 20.6731 38.1528 21.7761 38.1528 23.484C38.1528 23.5196 38.1528 23.5196 38.1528 23.5552C38.1528 23.7331 37.9745 25.6545 38.0458 27.8962L38.3311 30.8139C38.2241 31.2053 38.1171 31.6323 38.0815 32.0949C36.9403 33.8028 35.4425 35.3328 33.5524 36.6849C32.9462 36.7917 31.9833 36.4714 30.8065 36.6138C28.7737 36.507 27.5612 36.1512 26.4201 35.6886C24.8153 35.0482 25.2432 33.3402 25.0292 31.3832C25.0292 30.0667 24.9223 29.106 25.5642 28.3588C26.6697 27.3269 27.6682 26.4017 28.5241 25.5478C28.8807 25.4766 29.2017 25.441 29.487 25.441C30.1645 25.441 30.3785 26.1883 30.7708 26.5085C31.3057 26.9711 32.0903 26.8999 32.4826 27.576C32.019 27.9674 30.5568 28.6078 30.4142 29.4262C29.5583 28.1808 28.7024 27.576 27.9178 27.576C27.7395 27.576 27.5256 27.6115 27.3116 27.6471C27.2046 28.252 27.1689 28.8569 27.1689 29.4262C27.1689 30.7072 27.4542 31.8102 27.9892 32.7353C28.7737 34.0874 30.4498 34.8347 32.9818 34.9058C33.0175 34.9058 33.0175 34.9058 33.0531 34.9058C33.909 34.9058 34.5866 34.5856 35.0859 33.9451L35.1572 28.9281C35.1572 28.3588 35.1929 26.722 35.2285 23.9466V23.911C35.2285 22.9147 34.7649 22.2387 33.802 21.9184C32.9462 21.9184 32.2686 22.2387 31.8406 22.8791C31.6267 22.6656 31.2344 22.3098 30.6995 21.8473C31.912 21.3491 33.5168 19.8547 34.8362 18.1823L34.9432 16.1897C34.9432 15.1934 33.5881 14.4818 31.7693 13.699C30.9491 13.3432 30.2359 13.1653 29.6296 13.1653C28.8807 13.1653 28.2388 13.4499 27.8109 13.9837C27.5256 14.4818 27.3829 14.98 27.3829 15.4425C27.4186 16.5811 28.2388 17.5419 29.8792 18.3247Z" fill="white"/>
<path d="M43.3953 11.0304C43.5736 11.1371 43.6806 11.2083 43.7519 11.2795C44.1085 11.7776 44.4651 12.3113 44.8218 12.8095C45.4993 13.7702 45.856 14.9088 46.2839 16.0119C46.6405 16.9726 46.9971 17.9689 47.2824 18.9652C47.5677 19.8903 47.853 20.8154 47.8887 21.8117C47.8887 22.0964 48.0313 22.381 48.067 22.6657C48.1383 23.5908 48.3166 24.5515 48.2096 25.4766C48.067 26.6153 48.1383 27.7539 47.746 28.8569C47.4607 29.7109 47.2111 30.6004 46.8902 31.4544C46.6049 32.0949 46.4979 32.8421 46.2839 33.5182C46.1056 34.0875 45.8916 34.6212 45.535 35.1193C45.0357 35.8666 44.6791 36.7205 44.1085 37.4322C43.7876 37.8591 43.6449 38.4285 43.2527 38.8554C42.5751 39.6027 42.0401 40.4566 41.2556 41.0971C40.9703 41.3462 40.7563 41.6664 40.471 41.9511C40.2571 42.2001 40.0431 42.4136 39.7935 42.6627C39.6865 42.7695 39.4725 42.9118 39.4725 43.0185C39.4725 43.659 38.7236 43.6946 38.5453 44.1927C38.5096 44.2639 38.3313 44.3351 38.2243 44.3706C37.7964 44.4774 37.4398 44.6909 37.2615 45.1534C36.049 44.94 35.1931 45.5804 34.4442 46.3632C34.2659 46.1853 34.0876 46.5411 33.9449 46.4344C32.9464 46.8614 33.3743 47.0037 33.7666 47.7153C33.5883 47.8221 33.303 47.5374 33.1247 47.6442C32.9464 47.3951 32.8394 47.573 32.6967 47.3951C31.4486 47.1816 30.0934 47.0393 29.2376 47.6442C28.453 47.5019 28.4173 47.4663 27.7754 47.7509C27.3118 47.9288 26.8839 48.0356 26.3846 47.9644C25.8497 47.8577 25.2791 47.9644 24.7442 47.9644C24.6728 47.9644 24.6015 48 24.5659 48C23.9239 47.6442 23.2464 47.8933 22.5688 47.7509C22.1052 47.6798 21.6416 47.5019 21.071 47.3595C20.9283 47.4307 20.7144 47.573 20.4647 47.6086C20.2151 47.6442 19.9655 47.573 19.7158 47.5374C19.4306 47.5019 19.1453 47.4307 18.86 47.3951C17.3622 47.1105 15.9357 46.6123 14.4736 46.0786C14.2239 46.0074 14.01 45.8295 13.796 45.6872C13.4394 45.5093 13.1184 45.2602 12.7618 45.1534C11.9416 44.94 11.3353 44.3706 10.6934 43.9081C10.2298 43.5878 9.7662 43.1964 9.30259 42.8406C9.15994 42.7339 9.0173 42.6627 8.91031 42.556C8.33972 41.9511 7.8048 41.3462 7.23421 40.7769C6.87759 40.4211 6.44965 40.1008 6.05737 39.745C5.77207 39.5315 5.52244 39.2824 5.30847 38.9978C5.05884 38.6064 4.70222 38.3217 4.38126 38.0015C4.13163 37.788 3.95332 37.5745 3.81067 37.2543C3.52538 36.5782 3.1331 35.9377 2.77648 35.2973C2.59817 34.977 2.34854 34.7279 2.17023 34.5145C1.99192 34.0163 1.84927 33.5893 1.70662 33.1623C1.49265 32.593 1.20736 32.0237 0.993387 31.4544C0.886402 31.1698 0.815078 30.8851 0.779416 30.6004C0.565445 29.3195 0.280151 28.0385 0.173165 26.7576C0.101841 25.7257 0.244489 24.6938 0.280151 23.662C0.601107 23.2706 0.351474 22.9147 0.244489 22.5589C0.351474 22.3454 0.708092 22.1675 0.45846 21.8473C0.173165 21.4915 0.422798 21.0645 0.315812 20.7087C0.208827 20.2817 0.315812 19.9615 0.529783 19.6056C0.708093 19.2854 0.208827 18.8228 0.0305178 18.2179C-0.0408059 18.04 0.0305178 17.8265 0.0661796 17.6486C0.101841 17.5063 0.351474 17.4351 0.351474 17.2928C0.494122 16.6523 1.24302 16.2609 1.42133 15.656C1.67096 14.9444 1.67096 14.8732 2.27721 14.2328C2.34854 14.1616 2.41986 14.0904 2.45552 13.9837C2.8478 13.2365 3.41839 12.596 3.70369 11.7776C3.84633 11.3862 4.09597 11.0304 4.38126 10.7102C4.88053 10.0697 5.41545 9.42921 5.91472 8.82431C6.12869 8.57524 6.307 8.29059 6.52097 8.04151C6.87759 7.61453 7.23421 7.18755 7.62649 6.83173C8.62502 5.94218 9.62355 5.08821 10.6577 4.19867C11.157 3.77168 11.6563 3.41586 12.2625 3.09563C12.4052 3.02446 12.5478 2.91772 12.6905 2.84655C13.1897 2.49073 13.689 2.13491 14.1883 1.81468C14.7945 1.88584 15.2938 1.5656 15.9 1.45886C16.1497 1.42328 16.3993 1.28095 16.6133 1.1742C17.6831 0.74722 18.7886 0.533729 19.8942 0.355819C20.7144 0.213491 21.5703 0.106746 22.4261 0.106746C23.175 0.106746 23.9239 0.0355819 24.6372 0C24.7798 0 24.9581 0.0355819 25.1008 0.0355819C25.3861 0.0711638 25.6714 0.142328 25.9567 0.142328C26.5629 0.142328 27.2048 0.17791 27.7754 0.462565C27.8111 0.462565 27.8467 0.498147 27.8824 0.498147C28.5956 0.462565 29.2732 0.711638 29.9508 0.92513C30.2004 1.06746 30.4501 1.10304 30.664 1.20978C30.771 1.24537 30.8423 1.35211 30.9137 1.35211C31.6982 1.31653 32.3401 1.7791 33.0534 1.99259C34.2302 2.31282 35.2644 2.88213 36.1916 3.66494C36.9048 4.26983 37.6894 4.80356 38.4383 5.37287C38.9732 5.76427 39.4012 6.22683 39.7221 6.76056C39.5082 6.90289 39.3655 6.76056 39.2585 6.65382C38.7593 6.26242 38.2957 5.87102 37.8321 5.47961C37.3328 5.05263 36.8335 4.62565 36.1916 4.44774C36.0846 4.41216 35.9776 4.34099 35.835 4.26983C35.3357 4.02076 34.8721 3.70052 34.2659 3.62936C33.7309 3.55819 33.2317 3.23795 32.7324 2.98888C31.9479 2.63306 31.092 2.38399 30.2361 2.1705C30.0934 2.13491 29.9151 2.09933 29.7725 2.02817C29.0236 1.7791 28.3103 1.53002 27.4901 1.53002C27.1692 1.53002 26.8482 1.42328 26.5273 1.35211C25.3504 1.20978 24.1379 1.24537 22.9611 1.35211C22.4975 1.45886 21.9625 1.45886 21.4633 1.53002C20.4291 1.70793 19.4306 1.92142 18.3964 2.13491C18.2537 2.1705 18.0754 2.1705 17.9328 2.24166C17.1839 2.49073 16.435 2.73981 15.7217 3.02446C14.7945 3.41586 13.9386 3.91401 13.0114 4.37657C12.2625 4.73239 11.6919 5.26612 11.1927 5.94218C10.8717 6.36916 10.4438 6.76056 10.0515 7.15196C9.98017 7.22313 9.90884 7.29429 9.83752 7.32987C8.69634 8.07709 8.48237 8.29059 7.69781 9.35804C7.62649 9.42921 7.59082 9.53595 7.5195 9.57153C6.84193 9.89177 6.7706 10.5678 6.66362 11.2083C6.66362 11.315 6.66362 11.4218 6.59229 11.493C6.20001 11.8132 6.09303 12.3469 5.84339 12.7383C5.77207 12.8095 5.77207 12.9518 5.70075 12.9874C5.27281 13.0941 5.23714 13.5923 4.91619 13.7702C4.20295 14.126 3.77501 14.6953 3.66802 15.4781C3.66802 15.5137 3.63236 15.5137 3.5967 15.5493C3.45405 15.9051 3.45405 15.9051 3.66802 16.4033C3.38273 16.6879 3.27574 17.0793 2.88346 17.3284C2.49118 17.5775 2.49118 17.8265 2.66949 18.2535C2.74082 18.467 3.34707 18.5026 3.48972 18.7517C3.27574 18.9296 2.70515 19.3566 2.63383 19.7124C2.52685 20.2817 2.45552 20.2817 2.0989 20.4952C1.99192 20.9933 1.92059 21.4559 1.81361 21.954C1.77795 22.0964 1.74229 22.2031 1.77795 22.3454C1.92059 23.1638 1.81361 23.9822 1.92059 24.765C1.95626 25.2276 2.17023 25.7257 2.20589 26.1883C2.20589 26.6153 2.06324 27.0778 2.13457 27.5404C2.31287 28.7858 2.52685 30.0667 3.16876 31.1698C3.24008 31.3121 3.34707 31.4544 3.38273 31.5967C3.56104 32.4507 3.95332 33.2335 4.48825 33.9451C4.55957 34.0519 4.59523 34.1942 4.63089 34.301C4.8092 34.7991 4.95185 35.2973 5.37979 35.6175C5.48678 35.6887 5.52244 35.831 5.59376 35.9377C5.62942 36.0089 5.59376 36.1512 5.66509 36.2224C6.41398 37.1475 6.69928 38.3217 7.55516 39.1757C7.8048 39.4248 8.05443 39.6738 8.33972 39.9229C8.55369 40.1364 8.76766 40.3143 8.98164 40.5278C9.51656 41.0971 10.0872 41.6308 10.6221 42.2001C10.6577 42.2357 10.6934 42.3069 10.7647 42.3425C11.9772 42.9474 12.9758 43.9081 14.2239 44.513C15.1155 44.94 15.9714 45.3669 16.8629 45.7939C17.1482 45.9363 17.4692 45.9718 17.7901 46.043C18.86 46.3277 19.9298 46.6123 20.9997 46.8614C21.178 46.897 21.392 46.9325 21.5703 46.9325C21.8912 46.9325 22.1765 46.9681 22.4975 47.0749C22.9254 47.2172 23.389 47.2528 23.817 47.0393C23.9596 46.9681 24.1379 46.9325 24.2806 46.9681C24.9938 47.146 25.707 46.9681 26.3846 46.8258C27.0978 46.6479 27.8111 46.5056 28.56 46.3988C28.9879 46.043 29.4159 46.1853 29.9151 46.2209C30.3787 46.2565 30.8423 46.0074 31.3059 45.8651C31.5556 45.7939 31.7695 45.6516 32.0192 45.5448C32.1618 45.4737 32.3045 45.3669 32.4115 45.2602C32.5541 45.1179 32.5898 44.6553 32.7324 44.513C32.8394 44.4062 33.0534 44.3706 33.196 44.3351C33.2317 44.3351 33.2317 44.2639 33.2673 44.1927C33.3387 44.2995 33.3743 44.4062 33.4456 44.4774C33.517 44.5486 33.5883 44.6553 33.6596 44.6553C33.8379 44.6909 34.1589 44.9755 34.2302 44.9044C34.5155 44.513 34.9791 44.3706 35.3357 44.1572C35.7993 43.8369 35.942 43.4811 35.9063 42.9474C37.2258 42.9829 38.2957 42.4848 39.2229 41.5953C40.0787 40.7413 40.9703 39.9229 41.7192 38.9978C43.11 37.2898 44.2868 35.4752 44.9644 33.3758C45.0357 33.1623 45.1427 32.9488 45.2141 32.7354C45.9629 31.063 46.4266 29.2839 46.6405 27.4692C46.8902 25.3343 46.9615 23.1638 46.6049 21.0289C46.3552 19.5701 46.0343 18.1468 45.6063 16.7235C45.3567 15.8695 45.0001 15.0156 44.5721 14.1972C44.1442 13.3432 43.7876 12.4893 43.3953 11.5997C43.3596 11.3862 43.3953 11.2439 43.3953 11.0304ZM36.3343 42.9829C36.2629 43.0541 36.1559 43.0897 36.1916 43.1253C36.2273 43.1964 36.2986 43.2676 36.3343 43.3388C36.3699 43.3032 36.4412 43.2676 36.4412 43.232C36.4412 43.1253 36.3699 43.0541 36.3343 42.9829ZM4.95185 13.0586L4.91619 12.9874L4.88053 13.0586H4.95185Z" fill="white"/>
<path d="M68.3231 23.1328L68.0021 23.0261C68.0378 22.9549 68.0378 22.8837 68.0378 22.8126C68.0378 22.6347 67.9308 22.4923 67.7168 22.35C67.5029 22.2077 67.2532 22.1009 66.9323 21.9942C66.6113 21.8874 66.2547 21.8163 65.8981 21.7807C65.5415 21.7451 65.1848 21.7095 64.8282 21.7095C64.4003 21.7095 64.008 21.7807 63.5801 21.8874C63.1878 21.9942 62.7955 22.1721 62.4745 22.4212C62.1536 22.6702 61.904 22.9905 61.69 23.3819C61.5117 23.7733 61.4047 24.2359 61.4047 24.8052C61.4047 25.3389 61.5117 25.837 61.69 26.2284C61.8683 26.6198 62.1536 26.9401 62.4745 27.1891C62.7955 27.4382 63.1521 27.6161 63.5801 27.7229C63.9723 27.8296 64.4003 27.9008 64.8282 27.9008C65.4701 27.9008 66.0407 27.8652 66.54 27.7585C67.0393 27.6517 67.4672 27.545 67.8238 27.4026V25.9794H65.6841C65.5415 25.9794 65.3988 26.0149 65.3275 26.0861C65.2562 26.1573 65.1848 26.2996 65.1848 26.5131H64.8995V24.3782H65.1848C65.2205 24.5561 65.2562 24.6984 65.3275 24.734C65.3988 24.7696 65.5058 24.8052 65.6841 24.8052H69.8922V25.0898C69.6782 25.1254 69.5356 25.161 69.4643 25.1966C69.3929 25.2321 69.3929 25.3389 69.3929 25.4812V27.4382C69.3929 27.545 69.4286 27.6161 69.4999 27.6517C69.5712 27.6873 69.6426 27.7229 69.7496 27.7585V28.0431C69.3929 28.2922 69.0007 28.5057 68.5727 28.6836C68.1804 28.8615 67.7525 28.9682 67.3246 29.075C66.8966 29.1817 66.4687 29.2173 66.0764 29.2529C65.6841 29.2885 65.2562 29.2885 64.8282 29.2885C64.0437 29.2885 63.3304 29.1817 62.6885 29.0038C62.0466 28.8259 61.5117 28.5057 61.0481 28.1499C60.5845 27.7585 60.2278 27.2959 59.9782 26.7622C59.7286 26.1929 59.5859 25.588 59.5859 24.8763C59.5859 24.1647 59.7286 23.5598 59.9782 22.9905C60.2278 22.4212 60.5845 21.9586 61.0481 21.5672C61.5117 21.1758 62.0466 20.8912 62.6885 20.6777C63.3304 20.4642 64.0437 20.3574 64.8282 20.3574C65.3275 20.3574 65.7911 20.393 66.219 20.4642C66.6826 20.5353 67.0749 20.6065 67.3959 20.6777C67.7525 20.7488 68.0378 20.8556 68.2518 20.9267C68.4657 20.9979 68.6084 21.0335 68.6797 21.0335C68.7867 21.0335 68.858 20.9979 68.9293 20.9623C69.0007 20.9267 69.0363 20.8912 69.1076 20.8556L69.3216 20.9623L68.3231 23.1328Z" fill="white"/>
<path d="M80.8399 22.2433C80.8399 22.1365 80.8043 22.0298 80.6973 21.9586C80.5903 21.8874 80.4477 21.8518 80.198 21.8518H74.7774V23.9156H78.0583C78.2723 23.9156 78.4506 23.88 78.5933 23.8089C78.7002 23.7377 78.7716 23.5954 78.7716 23.3463H79.0569V25.9438H78.7716C78.7716 25.6947 78.7002 25.5168 78.5933 25.4456C78.4863 25.3745 78.308 25.3389 78.0583 25.3389H74.7774V27.6517H80.3763C80.5547 27.6517 80.6973 27.6161 80.8043 27.545C80.9113 27.4738 80.9469 27.367 80.9469 27.2247H81.2322V29.502H80.9469C80.9469 29.3241 80.9113 29.2529 80.8043 29.2173C80.6973 29.1817 80.5547 29.1817 80.3763 29.1817H72.5664V28.8971C72.6377 28.8971 72.7091 28.8615 72.7804 28.8259C72.8517 28.7903 72.8874 28.6836 72.8874 28.6124V21.0335C72.8874 20.9267 72.8517 20.8556 72.7804 20.82C72.7091 20.7844 72.6377 20.7488 72.5664 20.7488V20.4642H80.198C80.4477 20.4642 80.5903 20.4286 80.6973 20.3574C80.8043 20.2862 80.8399 20.1795 80.8399 20.0728H81.1252V22.2788H80.8399V22.2433Z" fill="white"/>
<path d="M89.0065 20.3218C89.6128 20.3218 90.2547 20.4286 90.8966 20.6065C91.5385 20.7844 92.1091 21.0691 92.644 21.4249C93.179 21.7807 93.6069 22.2433 93.9279 22.8126C94.2488 23.3819 94.4271 24.0579 94.4271 24.8052C94.4271 25.588 94.2488 26.2284 93.9279 26.7977C93.6069 27.3671 93.179 27.8296 92.644 28.1854C92.1091 28.5413 91.5385 28.8259 90.8966 29.0038C90.2547 29.1817 89.6485 29.2529 89.0065 29.2529C88.4003 29.2529 87.7584 29.1817 87.1165 29.0038C86.4745 28.8259 85.904 28.5768 85.369 28.1854C84.8341 27.8296 84.4062 27.3671 84.0852 26.7977C83.7642 26.2284 83.5859 25.5524 83.5859 24.8052C83.5859 24.0224 83.7642 23.3819 84.0852 22.8126C84.4062 22.2433 84.8341 21.7807 85.369 21.4249C85.904 21.0691 86.4745 20.7844 87.1165 20.6065C87.7584 20.4286 88.4003 20.3218 89.0065 20.3218ZM89.0065 21.8519C88.5786 21.8519 88.1507 21.923 87.7227 22.0654C87.2948 22.2077 86.9025 22.3856 86.5815 22.6347C86.2249 22.8837 85.9753 23.204 85.7613 23.5598C85.5473 23.9156 85.4404 24.3426 85.4404 24.8052C85.4404 25.2677 85.5473 25.6947 85.7613 26.0505C85.9753 26.4063 86.2606 26.7266 86.5815 26.9757C86.9382 27.2247 87.2948 27.4026 87.7227 27.545C88.1507 27.6873 88.5786 27.7585 89.0065 27.7585C89.4345 27.7585 89.8624 27.6873 90.2904 27.545C90.7183 27.4026 91.1106 27.2247 91.4315 26.9757C91.7882 26.7266 92.0378 26.4063 92.2518 26.0505C92.4657 25.6947 92.5727 25.2677 92.5727 24.8052C92.5727 24.3426 92.4657 23.9156 92.2518 23.5598C92.0378 23.204 91.7525 22.8837 91.4315 22.6347C91.0749 22.3856 90.7183 22.2077 90.2904 22.0654C89.8624 21.923 89.4345 21.8519 89.0065 21.8519Z" fill="white"/>
<path d="M102.773 20.4286C103.308 20.4286 103.807 20.4642 104.235 20.5709C104.663 20.6777 105.055 20.82 105.34 21.0335C105.661 21.247 105.911 21.496 106.054 21.8519C106.232 22.1721 106.303 22.5991 106.303 23.0617C106.303 23.8089 106.089 24.3782 105.661 24.734C105.233 25.1254 104.627 25.3745 103.914 25.5168L106.161 28.6836C106.232 28.7903 106.339 28.8615 106.446 28.8971C106.553 28.9327 106.66 28.9327 106.731 28.9327V29.2173H103.593V28.9327C103.7 28.9327 103.771 28.9327 103.843 28.8971C103.914 28.8615 103.95 28.8259 103.95 28.7548C103.95 28.6836 103.914 28.648 103.878 28.5768C103.843 28.5057 103.771 28.3989 103.664 28.2922L101.81 25.6947H99.4206V28.6836C99.4206 28.7903 99.4563 28.8615 99.5276 28.8971C99.5989 28.9327 99.7416 28.9682 99.9199 28.9682V29.2173H97.0312V28.9327C97.3522 28.9327 97.5305 28.8259 97.5305 28.648V21.0335C97.5305 20.82 97.3522 20.7488 97.0312 20.7488V20.4642H102.773V20.4286ZM102.309 24.3426C102.701 24.3426 103.058 24.307 103.308 24.2359C103.593 24.1647 103.771 24.0935 103.95 23.9868C104.092 23.88 104.235 23.7377 104.271 23.5954C104.306 23.4531 104.378 23.2751 104.378 23.0972C104.378 22.9193 104.342 22.7414 104.271 22.5991C104.199 22.4568 104.092 22.3144 103.95 22.2077C103.807 22.1009 103.593 21.9942 103.308 21.9586C103.022 21.8874 102.701 21.8519 102.309 21.8519H99.4206V24.3426H102.309Z" fill="white"/>
<path d="M117.43 23.1328L117.109 23.0261C117.144 22.9549 117.144 22.8837 117.144 22.8126C117.144 22.6347 117.037 22.4923 116.823 22.35C116.609 22.2077 116.36 22.1009 116.039 21.9942C115.718 21.8874 115.361 21.8163 115.005 21.7807C114.648 21.7451 114.291 21.7095 113.935 21.7095C113.507 21.7095 113.114 21.7807 112.687 21.8874C112.294 21.9942 111.902 22.1721 111.581 22.4212C111.26 22.6702 111.01 22.9905 110.796 23.3819C110.618 23.7733 110.511 24.2359 110.511 24.8052C110.511 25.3389 110.618 25.837 110.796 26.2284C110.975 26.6198 111.26 26.9401 111.581 27.1891C111.902 27.4382 112.259 27.6161 112.687 27.7229C113.079 27.8296 113.507 27.9008 113.935 27.9008C114.577 27.9008 115.147 27.8652 115.646 27.7585C116.146 27.6517 116.574 27.545 116.93 27.4026V25.9794H114.791C114.648 25.9794 114.505 26.0149 114.434 26.0861C114.363 26.1573 114.291 26.2996 114.291 26.5131H114.006V24.3782H114.291C114.327 24.5561 114.363 24.6984 114.434 24.734C114.505 24.7696 114.612 24.8052 114.791 24.8052H118.999V25.0898C118.785 25.1254 118.642 25.161 118.571 25.1966C118.499 25.2321 118.499 25.3389 118.499 25.4812V27.4382C118.499 27.545 118.535 27.6161 118.606 27.6517C118.678 27.6873 118.749 27.7229 118.856 27.7585V28.0431C118.499 28.2922 118.107 28.5057 117.679 28.6836C117.287 28.8615 116.859 28.9682 116.431 29.075C116.003 29.1817 115.575 29.2173 115.183 29.2529C114.791 29.2885 114.363 29.2885 113.935 29.2885C113.15 29.2885 112.437 29.1817 111.795 29.0038C111.153 28.8259 110.618 28.5057 110.155 28.1499C109.691 27.7585 109.334 27.2959 109.085 26.7622C108.835 26.1929 108.692 25.588 108.692 24.8763C108.692 24.1647 108.835 23.5598 109.085 22.9905C109.334 22.4212 109.691 21.9586 110.155 21.5672C110.618 21.1758 111.153 20.8912 111.795 20.6777C112.437 20.4642 113.15 20.3574 113.935 20.3574C114.434 20.3574 114.898 20.393 115.325 20.4642C115.789 20.5353 116.181 20.6065 116.502 20.6777C116.859 20.7488 117.144 20.8556 117.358 20.9267C117.572 20.9979 117.715 21.0335 117.786 21.0335C117.893 21.0335 117.964 20.9979 118.036 20.9623C118.107 20.9267 118.143 20.8912 118.214 20.8556L118.428 20.9623L117.43 23.1328Z" fill="white"/>
<path d="M121.602 28.9327C121.887 28.9327 122.03 28.8259 122.03 28.648V21.0335C122.03 20.82 121.887 20.7488 121.602 20.7488V20.4642H124.383V20.7488C124.098 20.7488 123.955 20.8556 123.955 21.0335V28.6124C123.955 28.8259 124.098 28.8971 124.383 28.8971V29.2173H121.602V28.9327Z" fill="white"/>
<path d="M126.31 28.9327C126.452 28.8971 126.559 28.8259 126.666 28.7192C126.738 28.6124 126.844 28.4701 126.916 28.2922L130.018 21.7807C130.09 21.6384 130.161 21.496 130.232 21.3893C130.304 21.2826 130.339 21.1758 130.339 21.0691C130.339 20.9623 130.304 20.8912 130.232 20.82C130.161 20.7844 130.054 20.7488 129.983 20.7132V20.4286H132.8V20.7132C132.729 20.7488 132.657 20.7488 132.55 20.82C132.479 20.8556 132.443 20.9267 132.443 21.0691C132.443 21.1758 132.479 21.247 132.515 21.3537C132.55 21.4605 132.622 21.5672 132.693 21.7095L136.188 28.5057C136.259 28.6124 136.331 28.7192 136.402 28.7903C136.509 28.8615 136.616 28.8971 136.723 28.9682V29.2173H133.763V28.9327C133.799 28.9327 133.87 28.9327 133.941 28.8971C134.013 28.8615 134.048 28.8259 134.048 28.7548C134.048 28.648 134.013 28.5057 133.906 28.3278L133.264 27.0824H129.163L128.556 28.2566C128.449 28.5057 128.378 28.648 128.378 28.7548C128.378 28.8615 128.485 28.9327 128.699 28.9327V29.2173H126.31V28.9327ZM132.657 25.8015L131.267 22.7058L129.697 25.8015H132.657Z" fill="white"/>
<path d="M138.862 28.9327C139.076 28.9327 139.183 28.8259 139.183 28.648V21.0335C139.183 20.82 139.076 20.7488 138.862 20.7488V20.4642H141.715V20.7488C141.608 20.7488 141.572 20.82 141.572 20.9267C141.572 21.0335 141.679 21.1758 141.893 21.3893L146.707 26.3708V21.0335C146.707 20.82 146.565 20.7488 146.28 20.7488V20.4642H148.811V20.7488C148.598 20.7488 148.491 20.8556 148.491 21.0335V28.6124C148.491 28.8259 148.598 28.8971 148.811 28.8971V29.2173H146.101V28.9327C146.244 28.9327 146.315 28.8971 146.315 28.7903C146.315 28.7192 146.208 28.5768 146.03 28.3989L140.93 23.0972V28.648C140.93 28.8615 141.073 28.9327 141.322 28.9327V29.2173H138.826V28.9327H138.862Z" fill="white"/>
<path d="M166.607 20.7132C166.393 20.7132 166.214 20.7844 166.107 20.9623C166 21.1402 165.929 21.247 165.893 21.3537L162.933 27.8652C162.826 28.0787 162.755 28.2566 162.684 28.3989C162.613 28.5413 162.577 28.6124 162.577 28.6836C162.577 28.7548 162.577 28.7903 162.613 28.8259C162.648 28.8615 162.684 28.8971 162.72 28.9327V29.2173H160.152V28.9327C160.259 28.8971 160.295 28.8259 160.295 28.6836C160.295 28.6124 160.259 28.5057 160.152 28.3278C160.081 28.1499 159.974 27.9364 159.831 27.6873L156.8 21.1402C156.728 21.0335 156.657 20.9267 156.55 20.8556C156.443 20.7844 156.3 20.7488 156.122 20.6777V20.393H159.118V20.6777C159.046 20.6777 158.975 20.7132 158.904 20.7488C158.832 20.7844 158.797 20.8556 158.797 20.9623C158.797 21.0691 158.832 21.247 158.939 21.4249C159.046 21.6028 159.153 21.8519 159.296 22.1365L161.436 26.7266L163.54 22.2077C163.682 21.923 163.789 21.674 163.932 21.4249C164.039 21.2114 164.11 21.0335 164.11 20.9623C164.11 20.7844 163.968 20.6777 163.647 20.6777V20.393H166.571V20.7132H166.607Z" fill="white"/>
<path d="M173.668 20.3218C174.274 20.3218 174.916 20.4286 175.558 20.6065C176.2 20.7844 176.77 21.0691 177.305 21.4249C177.84 21.7807 178.268 22.2433 178.589 22.8126C178.91 23.3819 179.088 24.0579 179.088 24.8052C179.088 25.588 178.91 26.2284 178.589 26.7977C178.268 27.3671 177.84 27.8296 177.305 28.1854C176.77 28.5413 176.2 28.8259 175.558 29.0038C174.916 29.1817 174.31 29.2529 173.668 29.2529C173.061 29.2529 172.42 29.1817 171.778 29.0038C171.136 28.8259 170.565 28.5768 170.03 28.1854C169.495 27.8296 169.067 27.3671 168.746 26.7977C168.425 26.2284 168.247 25.5524 168.247 24.8052C168.247 24.0224 168.425 23.3819 168.746 22.8126C169.067 22.2433 169.495 21.7807 170.03 21.4249C170.565 21.0691 171.136 20.7844 171.778 20.6065C172.42 20.4286 173.061 20.3218 173.668 20.3218ZM173.668 21.8519C173.24 21.8519 172.812 21.923 172.384 22.0654C171.956 22.2077 171.564 22.3856 171.243 22.6347C170.922 22.8837 170.636 23.204 170.422 23.5598C170.208 23.9156 170.101 24.3426 170.101 24.8052C170.101 25.2677 170.208 25.6947 170.422 26.0505C170.636 26.4063 170.922 26.7266 171.243 26.9757C171.564 27.2247 171.956 27.4026 172.384 27.545C172.812 27.6873 173.24 27.7585 173.668 27.7585C174.096 27.7585 174.524 27.6873 174.952 27.545C175.379 27.4026 175.772 27.2247 176.093 26.9757C176.414 26.7266 176.699 26.4063 176.913 26.0505C177.127 25.6947 177.234 25.2677 177.234 24.8052C177.234 24.3426 177.127 23.9156 176.913 23.5598C176.699 23.204 176.414 22.8837 176.093 22.6347C175.772 22.3856 175.379 22.2077 174.952 22.0654C174.524 21.923 174.096 21.8519 173.668 21.8519Z" fill="white"/>
<path d="M189.823 23.1328L189.502 23.0261C189.538 22.9549 189.538 22.8837 189.538 22.8126C189.538 22.6347 189.431 22.4923 189.217 22.35C189.003 22.2077 188.753 22.1009 188.432 21.9942C188.111 21.8874 187.755 21.8163 187.398 21.7807C187.006 21.7451 186.685 21.7095 186.328 21.7095C185.9 21.7095 185.508 21.7807 185.08 21.8874C184.688 21.9942 184.296 22.1721 183.975 22.4212C183.654 22.6702 183.404 22.9905 183.19 23.3819C183.012 23.7733 182.905 24.2359 182.905 24.8052C182.905 25.3389 183.012 25.837 183.19 26.2284C183.368 26.6198 183.654 26.9401 183.975 27.1891C184.296 27.4382 184.652 27.6161 185.08 27.7229C185.508 27.8296 185.9 27.9008 186.328 27.9008C186.97 27.9008 187.541 27.8652 188.04 27.7585C188.539 27.6517 188.967 27.545 189.324 27.4026V25.9794H187.184C187.041 25.9794 186.899 26.0149 186.828 26.0861C186.756 26.1573 186.685 26.2996 186.685 26.5131H186.4V24.3782H186.685C186.721 24.5561 186.756 24.6984 186.828 24.734C186.899 24.7696 187.006 24.8052 187.184 24.8052H191.392V25.0898C191.178 25.1254 191.036 25.161 190.964 25.1966C190.893 25.2321 190.893 25.3389 190.893 25.4812V27.4382C190.893 27.545 190.929 27.6161 191 27.6517C191.071 27.6873 191.143 27.7229 191.25 27.7585V28.0431C190.893 28.2922 190.501 28.5057 190.073 28.6836C189.68 28.8615 189.252 28.9682 188.825 29.075C188.397 29.1817 187.969 29.2173 187.576 29.2529C187.184 29.2885 186.756 29.2885 186.328 29.2885C185.544 29.2885 184.83 29.1817 184.189 29.0038C183.547 28.8259 183.012 28.5057 182.548 28.1499C182.084 27.7585 181.728 27.2959 181.478 26.7622C181.229 26.1929 181.086 25.588 181.086 24.8763C181.086 24.1647 181.229 23.5598 181.478 22.9905C181.728 22.4212 182.084 21.9586 182.548 21.5672C183.012 21.1758 183.547 20.8912 184.189 20.6777C184.83 20.4642 185.544 20.3574 186.328 20.3574C186.827 20.3574 187.291 20.393 187.719 20.4642C188.147 20.5353 188.575 20.6065 188.896 20.6777C189.253 20.7488 189.538 20.8556 189.752 20.9267C189.966 20.9979 190.108 21.0335 190.18 21.0335C190.287 21.0335 190.358 20.9979 190.429 20.9623C190.501 20.9267 190.536 20.8912 190.608 20.8556L190.822 20.9623L189.823 23.1328Z" fill="white"/>
<path d="M196.492 20.7132C196.242 20.7132 196.135 20.82 196.135 20.9979V26.0149C196.135 26.7266 196.349 27.1892 196.813 27.4738C197.277 27.7229 197.919 27.8652 198.81 27.8652C199.702 27.8652 200.344 27.7229 200.807 27.4738C201.271 27.2247 201.485 26.7266 201.485 26.0149V21.0335C201.485 20.82 201.306 20.7488 200.985 20.7488V20.4642H203.66V20.7488C203.375 20.7488 203.268 20.8556 203.268 21.0335V25.9794C203.268 26.6198 203.161 27.1892 202.983 27.6161C202.804 28.0431 202.519 28.3989 202.127 28.648C201.734 28.8971 201.271 29.075 200.7 29.1817C200.13 29.2885 199.488 29.3241 198.739 29.3241C197.99 29.3241 197.348 29.2885 196.777 29.1817C196.207 29.075 195.743 28.9327 195.351 28.648C194.959 28.3989 194.673 28.0431 194.495 27.6161C194.317 27.1892 194.21 26.6554 194.21 25.9794V21.0335C194.21 20.82 194.067 20.7488 193.746 20.7488V20.4642H196.492V20.7132Z" fill="white"/>
<path d="M214.608 22.2433C214.608 22.1365 214.572 22.0298 214.465 21.9586C214.358 21.8874 214.215 21.8518 213.966 21.8518H208.545V23.9156H211.826C212.04 23.9156 212.218 23.88 212.361 23.8089C212.468 23.7377 212.539 23.5954 212.539 23.3463H212.824V25.9438H212.539C212.539 25.6947 212.468 25.5168 212.361 25.4456C212.254 25.3745 212.076 25.3389 211.826 25.3389H208.545V27.6517H214.144C214.322 27.6517 214.465 27.6161 214.572 27.545C214.679 27.4738 214.715 27.367 214.715 27.2247H215V29.502H214.715C214.715 29.3241 214.679 29.2529 214.572 29.2173C214.465 29.1817 214.322 29.1817 214.144 29.1817H206.334V28.8971C206.405 28.8971 206.477 28.8615 206.548 28.8259C206.619 28.7903 206.655 28.6836 206.655 28.6124V21.0335C206.655 20.9267 206.619 20.8556 206.548 20.82C206.477 20.7844 206.405 20.7488 206.334 20.7488V20.4642H213.966C214.215 20.4642 214.358 20.4286 214.465 20.3574C214.572 20.2862 214.608 20.1795 214.608 20.0728H214.893V22.2788H214.608V22.2433Z" fill="white"/>
</svg>
