<svg width="49" height="48" viewBox="0 0 49 48" fill="none" xmlns="http://www.w3.org/2000/svg">
<path d="M14.2238 16.9014C13.4749 17.4707 12.833 17.9688 12.3337 18.3958C11.4065 18.2179 10.9429 17.6486 10.9429 16.6523C10.9429 16.1897 11.0499 15.6916 11.2282 15.0511C12.0128 14.3395 13.2253 13.272 14.8657 11.8132C15.151 11.742 15.472 11.7064 15.7216 11.7064C16.4348 11.7064 17.1124 11.9199 17.7187 12.3469C18.5389 12.9518 19.0025 13.8769 19.0738 15.0867L18.5389 17.7909C18.5032 18.467 18.8598 19.7835 18.8242 21.1V21.1356C18.8242 22.9859 19.4661 24.1957 20.7856 24.8006C21.9268 25.8324 22.4973 27.2913 22.4973 29.1416C22.4973 29.2839 21.9624 30.3869 21.9624 30.5648C21.8911 31.8102 22.1051 32.1304 21.5345 33.4825C20.8926 34.0163 20.2863 34.5856 19.6444 35.1549L17.79 36.8273C16.7558 37.0052 15.8286 37.1119 15.044 37.1119C13.4392 37.1119 12.3337 36.2224 11.4778 35.5107C10.1227 34.4433 9.15982 33.447 8.83887 31.3476C8.91019 30.8851 8.98151 30.4225 9.05284 29.9599C9.15982 29.4974 9.76607 29.4262 10.1227 29.0704C11.0856 28.0385 11.4065 26.1527 13.2609 25.1564C13.6532 25.0852 14.0455 25.0496 14.4021 25.0496C15.258 25.0496 15.9356 25.2275 16.5062 25.6189C17.2907 26.1527 17.897 26.8999 18.3249 27.825C17.8613 28.1808 17.2194 28.7502 16.3635 29.5685C15.4363 28.0385 15.044 27.6115 13.8315 27.6115C13.5819 27.6115 12.5834 27.2913 12.3337 27.3269C11.9058 27.8606 11.6918 28.6078 11.6918 29.4618C11.6918 29.4974 11.6918 29.5685 11.6918 29.6041C12.405 33.2691 14.5091 35.1193 17.9683 35.2261C18.2893 35.1549 18.7529 34.8347 19.3948 34.6923C19.9654 33.0912 20.7143 31.3476 20.2507 30.2802C19.6444 28.9636 19.7514 27.5048 18.7529 26.295C16.8984 24.765 15.9712 23.1282 15.8999 21.4203C15.8999 21.3491 15.8999 21.2424 15.8999 21.1C15.8999 20.6375 15.8999 19.8903 15.9356 18.8228C15.9356 18.2535 15.9356 17.3995 15.9712 16.2609C15.9712 16.2253 15.9712 16.2253 15.9712 16.1897C15.9712 15.5493 15.7929 14.8376 15.4006 14.0904C15.1153 13.5211 14.7587 13.2364 14.4021 13.2364C14.2595 13.2364 14.1168 13.272 13.9742 13.3788C13.6532 13.8413 13.5106 14.3395 13.5106 14.8376C13.4392 15.5493 13.6889 16.2253 14.2238 16.9014Z" fill="white"/>
<path d="M29.8792 18.3247L27.8822 19.321C27.3829 19.6768 27.4186 20.0326 26.955 20.3884C25.8851 20.1038 25.2432 19.5344 24.9936 18.7516C24.8509 18.3602 25.1719 18.0044 25.1719 17.5774C25.1719 17.1149 24.8509 16.5456 24.9936 15.9763L29.4513 11.7776C29.8436 11.742 30.2715 11.742 30.6995 11.742C33.0888 11.742 34.7649 11.9555 35.6921 12.3469C37.2612 12.9874 37.7248 14.1616 37.7248 16.1897C37.7248 16.6167 38.0101 17.2572 37.9388 17.7553C37.3326 18.2891 36.4054 19.1075 35.1929 20.1749C37.1899 20.6731 38.1528 21.7761 38.1528 23.484C38.1528 23.5196 38.1528 23.5196 38.1528 23.5552C38.1528 23.7331 37.9745 25.6545 38.0458 27.8962L38.3311 30.8139C38.2241 31.2053 38.1171 31.6323 38.0815 32.0949C36.9403 33.8028 35.4425 35.3328 33.5524 36.6849C32.9462 36.7917 31.9833 36.4714 30.8065 36.6138C28.7737 36.507 27.5612 36.1512 26.4201 35.6886C24.8153 35.0482 25.2432 33.3402 25.0292 31.3832C25.0292 30.0667 24.9223 29.106 25.5642 28.3588C26.6697 27.3269 27.6682 26.4017 28.5241 25.5478C28.8807 25.4766 29.2017 25.441 29.487 25.441C30.1645 25.441 30.3785 26.1883 30.7708 26.5085C31.3057 26.9711 32.0903 26.8999 32.4826 27.576C32.019 27.9674 30.5568 28.6078 30.4142 29.4262C29.5583 28.1808 28.7024 27.576 27.9178 27.576C27.7395 27.576 27.5256 27.6115 27.3116 27.6471C27.2046 28.252 27.1689 28.8569 27.1689 29.4262C27.1689 30.7072 27.4542 31.8102 27.9892 32.7353C28.7737 34.0874 30.4498 34.8347 32.9818 34.9058C33.0175 34.9058 33.0175 34.9058 33.0531 34.9058C33.909 34.9058 34.5866 34.5856 35.0859 33.9451L35.1572 28.9281C35.1572 28.3588 35.1929 26.722 35.2285 23.9466V23.911C35.2285 22.9147 34.7649 22.2387 33.802 21.9184C32.9462 21.9184 32.2686 22.2387 31.8406 22.8791C31.6267 22.6656 31.2344 22.3098 30.6995 21.8473C31.912 21.3491 33.5168 19.8547 34.8362 18.1823L34.9432 16.1897C34.9432 15.1934 33.5881 14.4818 31.7693 13.699C30.9491 13.3432 30.2359 13.1653 29.6296 13.1653C28.8807 13.1653 28.2388 13.4499 27.8109 13.9837C27.5256 14.4818 27.3829 14.98 27.3829 15.4425C27.4186 16.5811 28.2388 17.5419 29.8792 18.3247Z" fill="white"/>
<path d="M43.3953 11.0304C43.5736 11.1371 43.6806 11.2083 43.7519 11.2795C44.1085 11.7776 44.4651 12.3113 44.8218 12.8095C45.4993 13.7702 45.856 14.9088 46.2839 16.0119C46.6405 16.9726 46.9971 17.9689 47.2824 18.9652C47.5677 19.8903 47.853 20.8154 47.8887 21.8117C47.8887 22.0964 48.0313 22.381 48.067 22.6657C48.1383 23.5908 48.3166 24.5515 48.2096 25.4766C48.067 26.6153 48.1383 27.7539 47.746 28.8569C47.4607 29.7109 47.2111 30.6004 46.8902 31.4544C46.6049 32.0949 46.4979 32.8421 46.2839 33.5182C46.1056 34.0875 45.8916 34.6212 45.535 35.1193C45.0357 35.8666 44.6791 36.7205 44.1085 37.4322C43.7876 37.8591 43.6449 38.4285 43.2527 38.8554C42.5751 39.6027 42.0401 40.4566 41.2556 41.0971C40.9703 41.3462 40.7563 41.6664 40.471 41.9511C40.2571 42.2001 40.0431 42.4136 39.7935 42.6627C39.6865 42.7695 39.4725 42.9118 39.4725 43.0185C39.4725 43.659 38.7236 43.6946 38.5453 44.1927C38.5096 44.2639 38.3313 44.3351 38.2243 44.3706C37.7964 44.4774 37.4398 44.6909 37.2615 45.1534C36.049 44.94 35.1931 45.5804 34.4442 46.3632C34.2659 46.1853 34.0876 46.5411 33.9449 46.4344C32.9464 46.8614 33.3743 47.0037 33.7666 47.7153C33.5883 47.8221 33.303 47.5374 33.1247 47.6442C32.9464 47.3951 32.8394 47.573 32.6967 47.3951C31.4486 47.1816 30.0934 47.0393 29.2376 47.6442C28.453 47.5019 28.4173 47.4663 27.7754 47.7509C27.3118 47.9288 26.8839 48.0356 26.3846 47.9644C25.8497 47.8577 25.2791 47.9644 24.7442 47.9644C24.6728 47.9644 24.6015 48 24.5659 48C23.9239 47.6442 23.2464 47.8933 22.5688 47.7509C22.1052 47.6798 21.6416 47.5019 21.071 47.3595C20.9283 47.4307 20.7144 47.573 20.4647 47.6086C20.2151 47.6442 19.9655 47.573 19.7158 47.5374C19.4306 47.5019 19.1453 47.4307 18.86 47.3951C17.3622 47.1105 15.9357 46.6123 14.4736 46.0786C14.2239 46.0074 14.01 45.8295 13.796 45.6872C13.4394 45.5093 13.1184 45.2602 12.7618 45.1534C11.9416 44.94 11.3353 44.3706 10.6934 43.9081C10.2298 43.5878 9.7662 43.1964 9.30259 42.8406C9.15994 42.7339 9.0173 42.6627 8.91031 42.556C8.33972 41.9511 7.8048 41.3462 7.23421 40.7769C6.87759 40.4211 6.44965 40.1008 6.05737 39.745C5.77207 39.5315 5.52244 39.2824 5.30847 38.9978C5.05884 38.6064 4.70222 38.3217 4.38126 38.0015C4.13163 37.788 3.95332 37.5745 3.81067 37.2543C3.52538 36.5782 3.1331 35.9377 2.77648 35.2973C2.59817 34.977 2.34854 34.7279 2.17023 34.5145C1.99192 34.0163 1.84927 33.5893 1.70662 33.1623C1.49265 32.593 1.20736 32.0237 0.993387 31.4544C0.886402 31.1698 0.815078 30.8851 0.779416 30.6004C0.565445 29.3195 0.280151 28.0385 0.173165 26.7576C0.101841 25.7257 0.244489 24.6938 0.280151 23.662C0.601107 23.2706 0.351474 22.9147 0.244489 22.5589C0.351474 22.3454 0.708092 22.1675 0.45846 21.8473C0.173165 21.4915 0.422798 21.0645 0.315812 20.7087C0.208827 20.2817 0.315812 19.9615 0.529783 19.6056C0.708093 19.2854 0.208827 18.8228 0.0305178 18.2179C-0.0408059 18.04 0.0305178 17.8265 0.0661796 17.6486C0.101841 17.5063 0.351474 17.4351 0.351474 17.2928C0.494122 16.6523 1.24302 16.2609 1.42133 15.656C1.67096 14.9444 1.67096 14.8732 2.27721 14.2328C2.34854 14.1616 2.41986 14.0904 2.45552 13.9837C2.8478 13.2365 3.41839 12.596 3.70369 11.7776C3.84633 11.3862 4.09597 11.0304 4.38126 10.7102C4.88053 10.0697 5.41545 9.42921 5.91472 8.82431C6.12869 8.57524 6.307 8.29059 6.52097 8.04151C6.87759 7.61453 7.23421 7.18755 7.62649 6.83173C8.62502 5.94218 9.62355 5.08821 10.6577 4.19867C11.157 3.77168 11.6563 3.41586 12.2625 3.09563C12.4052 3.02446 12.5478 2.91772 12.6905 2.84655C13.1897 2.49073 13.689 2.13491 14.1883 1.81468C14.7945 1.88584 15.2938 1.5656 15.9 1.45886C16.1497 1.42328 16.3993 1.28095 16.6133 1.1742C17.6831 0.74722 18.7886 0.533729 19.8942 0.355819C20.7144 0.213491 21.5703 0.106746 22.4261 0.106746C23.175 0.106746 23.9239 0.0355819 24.6372 0C24.7798 0 24.9581 0.0355819 25.1008 0.0355819C25.3861 0.0711638 25.6714 0.142328 25.9567 0.142328C26.5629 0.142328 27.2048 0.17791 27.7754 0.462565C27.8111 0.462565 27.8467 0.498147 27.8824 0.498147C28.5956 0.462565 29.2732 0.711638 29.9508 0.92513C30.2004 1.06746 30.4501 1.10304 30.664 1.20978C30.771 1.24537 30.8423 1.35211 30.9137 1.35211C31.6982 1.31653 32.3401 1.7791 33.0534 1.99259C34.2302 2.31282 35.2644 2.88213 36.1916 3.66494C36.9048 4.26983 37.6894 4.80356 38.4383 5.37287C38.9732 5.76427 39.4012 6.22683 39.7221 6.76056C39.5082 6.90289 39.3655 6.76056 39.2585 6.65382C38.7593 6.26242 38.2957 5.87102 37.8321 5.47961C37.3328 5.05263 36.8335 4.62565 36.1916 4.44774C36.0846 4.41216 35.9776 4.34099 35.835 4.26983C35.3357 4.02076 34.8721 3.70052 34.2659 3.62936C33.7309 3.55819 33.2317 3.23795 32.7324 2.98888C31.9479 2.63306 31.092 2.38399 30.2361 2.1705C30.0934 2.13491 29.9151 2.09933 29.7725 2.02817C29.0236 1.7791 28.3103 1.53002 27.4901 1.53002C27.1692 1.53002 26.8482 1.42328 26.5273 1.35211C25.3504 1.20978 24.1379 1.24537 22.9611 1.35211C22.4975 1.45886 21.9625 1.45886 21.4633 1.53002C20.4291 1.70793 19.4306 1.92142 18.3964 2.13491C18.2537 2.1705 18.0754 2.1705 17.9328 2.24166C17.1839 2.49073 16.435 2.73981 15.7217 3.02446C14.7945 3.41586 13.9386 3.91401 13.0114 4.37657C12.2625 4.73239 11.6919 5.26612 11.1927 5.94218C10.8717 6.36916 10.4438 6.76056 10.0515 7.15196C9.98017 7.22313 9.90884 7.29429 9.83752 7.32987C8.69634 8.07709 8.48237 8.29059 7.69781 9.35804C7.62649 9.42921 7.59082 9.53595 7.5195 9.57153C6.84193 9.89177 6.7706 10.5678 6.66362 11.2083C6.66362 11.315 6.66362 11.4218 6.59229 11.493C6.20001 11.8132 6.09303 12.3469 5.84339 12.7383C5.77207 12.8095 5.77207 12.9518 5.70075 12.9874C5.27281 13.0941 5.23714 13.5923 4.91619 13.7702C4.20295 14.126 3.77501 14.6953 3.66802 15.4781C3.66802 15.5137 3.63236 15.5137 3.5967 15.5493C3.45405 15.9051 3.45405 15.9051 3.66802 16.4033C3.38273 16.6879 3.27574 17.0793 2.88346 17.3284C2.49118 17.5775 2.49118 17.8265 2.66949 18.2535C2.74082 18.467 3.34707 18.5026 3.48972 18.7517C3.27574 18.9296 2.70515 19.3566 2.63383 19.7124C2.52685 20.2817 2.45552 20.2817 2.0989 20.4952C1.99192 20.9933 1.92059 21.4559 1.81361 21.954C1.77795 22.0964 1.74229 22.2031 1.77795 22.3454C1.92059 23.1638 1.81361 23.9822 1.92059 24.765C1.95626 25.2276 2.17023 25.7257 2.20589 26.1883C2.20589 26.6153 2.06324 27.0778 2.13457 27.5404C2.31287 28.7858 2.52685 30.0667 3.16876 31.1698C3.24008 31.3121 3.34707 31.4544 3.38273 31.5967C3.56104 32.4507 3.95332 33.2335 4.48825 33.9451C4.55957 34.0519 4.59523 34.1942 4.63089 34.301C4.8092 34.7991 4.95185 35.2973 5.37979 35.6175C5.48678 35.6887 5.52244 35.831 5.59376 35.9377C5.62942 36.0089 5.59376 36.1512 5.66509 36.2224C6.41398 37.1475 6.69928 38.3217 7.55516 39.1757C7.8048 39.4248 8.05443 39.6738 8.33972 39.9229C8.55369 40.1364 8.76766 40.3143 8.98164 40.5278C9.51656 41.0971 10.0872 41.6308 10.6221 42.2001C10.6577 42.2357 10.6934 42.3069 10.7647 42.3425C11.9772 42.9474 12.9758 43.9081 14.2239 44.513C15.1155 44.94 15.9714 45.3669 16.8629 45.7939C17.1482 45.9363 17.4692 45.9718 17.7901 46.043C18.86 46.3277 19.9298 46.6123 20.9997 46.8614C21.178 46.897 21.392 46.9325 21.5703 46.9325C21.8912 46.9325 22.1765 46.9681 22.4975 47.0749C22.9254 47.2172 23.389 47.2528 23.817 47.0393C23.9596 46.9681 24.1379 46.9325 24.2806 46.9681C24.9938 47.146 25.707 46.9681 26.3846 46.8258C27.0978 46.6479 27.8111 46.5056 28.56 46.3988C28.9879 46.043 29.4159 46.1853 29.9151 46.2209C30.3787 46.2565 30.8423 46.0074 31.3059 45.8651C31.5556 45.7939 31.7695 45.6516 32.0192 45.5448C32.1618 45.4737 32.3045 45.3669 32.4115 45.2602C32.5541 45.1179 32.5898 44.6553 32.7324 44.513C32.8394 44.4062 33.0534 44.3706 33.196 44.3351C33.2317 44.3351 33.2317 44.2639 33.2673 44.1927C33.3387 44.2995 33.3743 44.4062 33.4456 44.4774C33.517 44.5486 33.5883 44.6553 33.6596 44.6553C33.8379 44.6909 34.1589 44.9755 34.2302 44.9044C34.5155 44.513 34.9791 44.3706 35.3357 44.1572C35.7993 43.8369 35.942 43.4811 35.9063 42.9474C37.2258 42.9829 38.2957 42.4848 39.2229 41.5953C40.0787 40.7413 40.9703 39.9229 41.7192 38.9978C43.11 37.2898 44.2868 35.4752 44.9644 33.3758C45.0357 33.1623 45.1427 32.9488 45.2141 32.7354C45.9629 31.063 46.4266 29.2839 46.6405 27.4692C46.8902 25.3343 46.9615 23.1638 46.6049 21.0289C46.3552 19.5701 46.0343 18.1468 45.6063 16.7235C45.3567 15.8695 45.0001 15.0156 44.5721 14.1972C44.1442 13.3432 43.7876 12.4893 43.3953 11.5997C43.3596 11.3862 43.3953 11.2439 43.3953 11.0304ZM36.3343 42.9829C36.2629 43.0541 36.1559 43.0897 36.1916 43.1253C36.2273 43.1964 36.2986 43.2676 36.3343 43.3388C36.3699 43.3032 36.4412 43.2676 36.4412 43.232C36.4412 43.1253 36.3699 43.0541 36.3343 42.9829ZM4.95185 13.0586L4.91619 12.9874L4.88053 13.0586H4.95185Z" fill="white"/>
</svg>
